{"glyphs":{"0":{"ha":800,"x_min":14,"x_max":703,"o":"m 703 411 q 702 313 703 353 q 696 241 701 272 q 678 182 690 210 q 644 121 667 154 q 619 90 639 113 q 566 44 600 67 q 481 3 532 21 q 358 -15 429 -15 q 236 3 288 -15 q 151 44 185 21 q 97 90 117 67 q 72 121 78 113 q 38 182 50 154 q 21 241 26 210 q 15 313 15 272 q 14 411 14 353 l 14 633 q 15 732 14 692 q 21 803 15 772 q 38 863 26 835 q 71 924 49 890 q 97 955 78 932 q 150 1001 115 978 q 236 1042 185 1024 q 358 1060 288 1060 q 479 1042 428 1060 q 565 1001 531 1024 q 619 955 600 978 q 644 924 639 932 q 678 863 667 890 q 696 803 690 835 q 702 732 701 772 q 703 633 703 692 l 703 411 m 358 151 q 416 159 392 151 q 457 178 440 167 q 484 201 474 189 q 500 221 494 213 q 522 292 519 247 q 525 411 525 336 l 525 633 q 522 753 525 708 q 500 824 519 797 q 484 844 494 832 q 457 867 474 856 q 416 885 440 878 q 358 893 392 893 q 301 885 325 893 q 260 867 276 878 q 233 844 243 856 q 217 824 222 832 q 194 753 197 797 q 192 633 192 708 l 192 411 q 194 292 192 336 q 217 221 197 247 q 233 201 222 213 q 260 178 243 189 q 301 159 276 167 q 358 151 325 151 z "},"1":{"ha":476,"x_min":0,"x_max":310,"o":"m 294 1044 q 310 1029 310 1044 l 310 15 q 294 0 310 0 l 147 0 q 132 15 132 0 l 132 878 l 15 878 q 4 883 8 878 q 0 894 0 888 l 19 1032 q 33 1044 19 1044 l 294 1044 z "},"2":{"ha":765,"x_min":14,"x_max":668,"o":"m 526 440 q 487 401 515 429 q 419 334 458 372 q 337 252 381 296 q 251 167 293 208 l 642 167 q 657 151 657 167 l 657 15 q 642 0 657 0 l 39 0 q 24 15 24 0 l 24 161 q 28 171 24 167 l 268 415 q 337 485 303 451 q 401 556 371 519 q 467 649 443 606 q 490 732 490 692 q 478 792 490 764 q 444 842 465 821 q 395 876 424 864 q 335 889 367 889 q 240 861 279 889 q 181 781 200 833 q 169 771 176 771 q 164 772 167 771 l 26 804 q 17 809 19 806 q 14 817 14 813 q 15 822 14 819 q 63 920 32 876 q 135 995 93 964 q 228 1043 178 1026 q 335 1060 279 1060 q 459 1038 410 1060 q 536 996 508 1015 q 572 964 550 986 q 616 909 594 942 q 653 834 638 876 q 668 739 668 792 q 649 628 668 679 q 606 539 631 578 q 558 475 582 500 q 526 440 535 450 z "},"3":{"ha":778,"x_min":14,"x_max":681,"o":"m 571 535 q 654 430 628 490 q 681 311 681 369 q 655 181 681 240 q 585 79 629 122 q 480 13 540 36 q 349 -11 419 -11 q 216 15 276 -11 q 112 84 156 42 q 43 179 68 126 q 14 285 18 232 q 29 300 14 300 l 171 300 q 185 288 185 300 q 202 241 188 264 q 238 200 217 218 q 288 171 260 182 q 349 160 317 160 q 405 169 378 160 q 454 198 432 179 q 490 244 476 217 q 503 310 503 272 q 491 365 503 339 q 458 410 479 392 q 409 440 438 429 q 347 451 381 451 l 285 451 q 269 467 269 451 l 269 600 q 285 615 269 615 l 347 615 q 453 656 414 615 q 492 754 492 696 q 486 794 492 771 q 465 839 481 818 q 421 874 449 860 q 349 889 393 889 q 256 857 289 889 q 204 778 222 825 q 193 769 201 769 q 188 769 190 769 l 50 801 q 40 807 43 803 q 38 815 38 811 q 39 821 38 818 q 159 997 76 935 q 350 1060 242 1060 q 475 1038 417 1060 q 576 975 533 1015 q 644 878 619 935 q 669 754 669 822 q 647 638 669 696 q 571 535 624 579 z "},"4":{"ha":779,"x_min":7,"x_max":696,"o":"m 350 1036 q 364 1044 354 1044 l 525 1044 q 537 1040 533 1044 q 540 1031 540 1035 q 538 1024 540 1028 l 203 344 l 407 344 l 407 596 q 422 611 407 611 l 569 611 q 585 596 585 611 l 585 344 l 681 344 q 696 329 696 344 l 696 193 q 681 178 696 178 l 585 178 l 585 15 q 569 0 585 0 l 422 0 q 407 15 407 0 l 407 178 l 22 178 q 7 193 7 178 l 7 342 q 8 347 7 346 l 350 1036 z "},"5":{"ha":783,"x_min":14,"x_max":686,"o":"m 353 671 q 480 647 419 671 q 586 577 540 622 q 659 470 632 532 q 686 333 686 408 q 658 186 686 250 q 581 78 629 122 q 471 12 533 35 q 342 -11 408 -11 q 240 3 290 -11 q 145 46 189 17 q 68 118 101 75 q 15 219 35 161 q 14 225 14 222 q 16 232 14 228 q 25 238 18 236 l 163 272 q 169 274 167 274 q 179 263 178 274 q 244 185 199 210 q 342 160 289 160 q 415 174 383 160 q 467 212 446 188 q 498 267 488 236 q 508 333 508 299 q 498 397 508 367 q 467 451 488 428 q 415 487 446 474 q 342 500 383 500 q 269 487 301 500 q 208 443 236 474 q 197 438 203 438 q 189 440 193 438 q 162 456 179 446 q 126 477 144 467 q 92 497 108 488 q 67 513 75 507 q 60 525 60 517 l 60 1029 q 75 1044 60 1044 l 611 1044 q 626 1029 626 1044 l 626 904 q 611 889 626 889 l 238 889 l 238 654 q 353 671 294 671 z "},"6":{"ha":751,"x_min":0,"x_max":668,"o":"m 458 1044 q 470 1040 467 1044 q 474 1031 474 1035 q 471 1022 474 1026 l 464 1007 q 371 822 418 915 q 279 636 324 729 q 304 638 292 638 q 332 638 317 638 q 465 612 403 638 q 572 542 526 586 q 642 440 617 497 q 668 317 668 382 q 647 192 668 253 q 584 86 626 132 q 479 13 542 40 q 333 -15 417 -15 q 188 13 250 -15 q 83 87 125 40 q 21 194 42 133 q 0 322 0 256 q 15 437 0 381 q 51 547 29 493 q 99 651 72 600 q 149 750 125 703 q 220 892 185 821 q 292 1036 256 964 q 306 1044 296 1044 l 458 1044 m 333 467 q 218 423 258 467 q 178 317 178 379 q 188 257 178 286 q 218 205 199 228 q 267 169 238 182 q 333 156 296 156 q 400 169 371 156 q 449 205 429 182 q 478 257 468 228 q 489 317 489 286 q 449 423 489 379 q 333 467 408 467 z "},"7":{"ha":706,"x_min":0,"x_max":622,"o":"m 0 1029 q 15 1044 0 1044 l 607 1044 q 622 1029 622 1044 l 622 892 q 621 886 622 888 l 251 10 q 238 0 247 0 l 85 0 q 73 6 76 0 q 69 15 69 11 q 71 21 69 18 l 438 889 l 15 889 q 0 904 0 889 l 0 1029 z "},"8":{"ha":792,"x_min":14,"x_max":694,"o":"m 694 311 q 667 181 694 240 q 592 77 639 121 q 483 9 546 33 q 350 -15 421 -15 q 217 10 279 -15 q 110 81 156 36 q 40 185 65 126 q 14 311 14 244 q 47 451 14 388 q 138 556 79 514 q 66 644 93 592 q 39 767 39 697 q 65 888 39 833 q 135 980 92 942 q 235 1039 179 1018 q 350 1060 292 1060 q 463 1039 408 1060 q 558 980 517 1018 q 626 888 600 942 q 651 767 651 833 q 626 649 651 700 q 560 563 601 599 q 658 458 622 522 q 694 311 694 394 m 353 889 q 256 853 293 889 q 219 767 219 817 q 256 673 219 708 q 353 638 293 638 q 451 673 411 638 q 490 767 490 708 q 480 814 490 792 q 451 853 469 836 q 407 879 432 869 q 353 889 382 889 m 185 311 q 199 249 185 278 q 237 200 213 221 q 292 167 261 179 q 357 156 324 156 q 420 167 390 156 q 473 200 450 179 q 510 249 496 221 q 524 311 524 278 q 511 374 524 344 q 477 426 499 404 q 425 460 456 447 q 357 474 394 474 q 288 460 319 474 q 233 426 256 447 q 197 374 210 404 q 185 311 185 344 z "},"9":{"ha":751,"x_min":0,"x_max":668,"o":"m 210 0 q 198 6 201 0 q 194 15 194 11 q 196 22 194 19 l 204 38 q 297 222 250 129 q 389 408 344 315 q 363 407 376 407 q 335 407 350 407 q 203 433 264 407 q 97 503 142 458 q 26 606 51 547 q 0 728 0 664 q 21 853 0 793 q 84 958 42 913 q 189 1032 126 1004 q 335 1060 251 1060 q 481 1032 418 1060 q 585 958 543 1004 q 647 850 626 911 q 668 722 668 789 q 653 608 668 664 q 617 498 639 551 q 569 394 596 444 q 519 294 543 343 q 448 152 483 224 q 376 8 413 81 q 363 0 372 0 l 210 0 m 335 578 q 450 622 410 578 q 490 728 490 665 q 480 788 490 760 q 450 840 469 817 q 401 876 431 863 q 335 889 372 889 q 268 876 297 889 q 219 840 239 863 q 190 788 200 817 q 179 728 179 760 q 219 622 179 665 q 335 578 260 578 z "},"\u0000":{"ha":0,"x_min":0,"x_max":0,"o":""},"\r":{"ha":347,"x_min":0,"x_max":0,"o":""}," ":{"ha":347,"x_min":0,"x_max":0,"o":""},"a":{"ha":768,"x_min":0,"x_max":664,"o":"m 488 718 q 501 732 488 732 l 650 732 q 664 718 664 732 l 664 17 q 650 1 664 1 l 501 1 q 488 17 488 1 l 488 57 q 414 6 460 25 q 299 -14 368 -14 q 158 19 215 -14 q 66 106 101 51 q 15 228 31 160 q 0 367 0 296 q 15 506 0 438 q 65 628 31 575 q 158 715 100 682 q 299 747 215 747 q 414 728 368 747 q 488 676 460 708 l 488 718 m 332 133 q 412 151 382 133 q 458 201 442 169 q 481 274 475 232 q 486 367 486 317 q 481 459 486 417 q 458 533 475 501 q 412 582 442 564 q 332 600 382 600 q 251 583 282 600 q 204 534 221 565 q 182 460 188 503 q 176 367 176 417 q 182 274 176 317 q 204 201 188 232 q 251 151 221 169 q 332 133 282 133 z "},"b":{"ha":768,"x_min":21,"x_max":685,"o":"m 685 367 q 669 227 685 296 q 619 105 654 158 q 527 19 585 51 q 386 -14 469 -14 q 271 6 317 -14 q 197 57 225 25 l 197 17 q 183 1 197 1 l 35 1 q 21 17 21 1 l 21 1028 q 35 1042 21 1042 l 183 1042 q 197 1028 197 1042 l 197 676 q 271 728 225 708 q 386 747 317 747 q 526 715 469 747 q 619 628 583 682 q 669 506 654 574 q 685 367 685 438 m 351 135 q 432 152 401 135 q 479 201 463 169 q 501 274 496 232 q 507 367 507 317 q 501 459 507 417 q 479 533 496 501 q 432 582 463 564 q 351 600 401 600 q 272 583 301 600 q 225 534 242 565 q 203 460 208 503 q 197 367 197 417 q 203 274 197 317 q 225 201 208 232 q 272 152 242 169 q 351 135 301 135 z "},"c":{"ha":703,"x_min":0,"x_max":619,"o":"m 332 135 q 417 151 385 135 q 468 199 450 168 q 488 204 475 211 l 610 140 q 618 131 617 138 q 617 119 619 125 q 492 15 568 44 q 332 -14 417 -14 q 210 3 269 -14 q 103 65 150 21 q 28 181 57 108 q 0 367 0 254 q 28 552 0 479 q 103 669 57 625 q 210 730 150 713 q 332 747 269 747 q 492 718 417 747 q 617 614 568 689 q 618 602 619 608 q 610 593 617 596 l 488 529 q 476 528 482 526 q 468 535 471 529 q 417 582 450 565 q 332 599 385 599 q 252 581 282 599 q 206 533 222 564 q 183 459 189 501 q 178 367 178 417 q 183 274 178 317 q 206 201 189 232 q 252 152 222 169 q 332 135 282 135 z "},"e":{"ha":747,"x_min":0,"x_max":664,"o":"m 364 132 q 451 147 408 132 q 526 194 494 163 q 546 196 536 204 l 636 121 q 638 99 647 111 q 501 13 579 42 q 343 -15 424 -15 q 250 -5 294 -15 q 165 28 206 6 q 83 90 115 56 q 33 167 51 125 q 7 259 14 210 q 0 367 0 308 q 28 552 0 479 q 103 669 57 625 q 210 730 150 713 q 332 747 269 747 q 501 710 424 747 q 619 589 578 672 q 645 528 636 557 q 658 469 654 499 q 663 408 663 440 q 664 338 664 375 q 649 322 664 322 l 178 322 q 227 182 185 232 q 364 132 269 132 m 332 599 q 224 560 257 599 q 182 456 192 521 l 482 456 q 440 560 472 521 q 332 599 408 599 z "},"f":{"ha":532,"x_min":0,"x_max":442,"o":"m 442 913 q 428 899 442 899 q 324 874 360 896 q 288 788 288 851 l 288 732 l 428 732 q 442 718 442 732 l 442 599 q 428 585 442 585 l 288 585 l 288 17 q 272 1 288 1 l 125 1 q 110 17 110 1 l 110 585 l 14 585 q 0 599 0 585 l 0 718 q 14 732 0 732 l 110 732 l 110 743 q 126 895 110 838 q 181 985 143 953 q 280 1030 219 1018 q 428 1042 340 1042 q 442 1028 442 1042 l 442 913 z "},"g":{"ha":756,"x_min":0,"x_max":658,"o":"m 483 721 q 497 736 483 736 l 643 736 q 658 721 658 736 l 658 154 q 657 36 658 83 q 651 -46 656 -11 q 638 -106 647 -81 q 614 -160 629 -132 q 499 -281 574 -239 q 307 -322 424 -322 q 253 -319 288 -322 q 180 -306 219 -317 q 99 -272 140 -294 q 19 -208 57 -249 q 22 -186 10 -196 l 125 -118 q 144 -119 136 -111 q 208 -162 171 -149 q 283 -176 244 -176 q 344 -168 314 -176 q 399 -143 374 -160 q 443 -102 425 -126 q 469 -46 461 -78 q 479 5 476 -22 q 483 58 482 32 l 483 65 q 410 15 456 33 q 296 -4 365 -4 q 156 28 213 -4 q 65 114 100 61 q 15 235 31 167 q 0 374 0 303 q 15 512 0 444 q 65 633 31 579 q 156 718 99 686 q 296 750 213 750 q 410 731 365 750 q 483 681 456 713 l 483 721 m 329 142 q 408 159 378 142 q 454 208 438 176 q 476 281 471 239 q 482 372 482 324 q 476 464 482 422 q 454 537 471 506 q 408 586 438 568 q 329 604 378 604 q 249 587 279 604 q 203 538 219 569 q 181 465 186 507 q 175 374 175 424 q 181 282 175 324 q 203 209 186 240 q 249 160 219 178 q 329 142 279 142 z "},"h":{"ha":760,"x_min":21,"x_max":663,"o":"m 619 617 q 656 510 650 571 q 663 367 663 450 l 663 17 q 649 1 663 1 l 500 1 q 486 17 486 1 l 486 444 q 478 501 486 474 q 451 551 469 529 q 407 585 433 572 q 343 599 381 599 q 268 581 297 599 q 224 535 239 564 q 203 469 208 507 q 197 389 197 431 l 197 17 q 183 1 197 1 l 36 1 q 21 17 21 1 l 21 1028 q 36 1042 21 1042 l 183 1042 q 197 1028 197 1042 l 197 667 q 276 729 231 711 q 381 747 322 747 q 515 715 451 747 q 619 617 578 682 z "},"i":{"ha":303,"x_min":21,"x_max":199,"o":"m 183 865 l 36 865 q 21 879 21 865 l 21 1028 q 36 1042 21 1042 l 183 1042 q 199 1028 199 1042 l 199 879 q 183 865 199 865 m 183 1 l 36 1 q 21 17 21 1 l 21 718 q 36 732 21 732 l 183 732 q 199 718 199 732 l 199 17 q 183 1 199 1 z "},"j":{"ha":294,"x_min":-125,"x_max":197,"o":"m 182 865 l 35 865 q 19 879 19 865 l 19 1028 q 35 1042 19 1042 l 182 1042 q 197 1028 197 1042 l 197 879 q 182 865 197 865 m -125 -168 q -111 -153 -125 -156 q -72 -145 -94 -151 q -30 -121 -50 -139 q 5 -71 -10 -103 q 19 13 19 -39 l 19 717 q 35 732 19 732 l 182 732 q 197 717 197 732 l 197 35 q 163 -147 197 -78 q 78 -254 128 -217 q -23 -305 29 -292 q -108 -319 -75 -318 q -120 -315 -115 -319 q -125 -304 -125 -311 l -125 -168 z "},"k":{"ha":767,"x_min":21,"x_max":685,"o":"m 679 25 q 681 10 685 18 q 667 1 676 1 l 493 1 q 481 7 486 1 l 271 297 l 197 215 l 197 17 q 183 1 197 1 l 36 1 q 21 17 21 1 l 21 1028 q 36 1042 21 1042 l 183 1042 q 197 1028 197 1042 l 197 454 l 438 728 q 449 732 442 732 l 619 732 q 633 723 629 732 q 631 707 638 714 l 385 429 l 679 25 z "},"z":{"ha":690,"x_min":14,"x_max":600,"o":"m 586 157 q 600 142 600 157 l 600 17 q 586 1 600 1 l 28 1 q 14 17 14 1 l 14 151 q 17 161 14 156 l 390 578 l 44 578 q 31 592 31 578 l 31 718 q 44 732 31 732 l 586 732 q 600 718 600 732 l 600 583 q 597 574 600 576 l 224 157 l 586 157 z "},"P":{"ha":838,"x_min":21,"x_max":754,"o":"m 507 1025 q 589 994 546 1015 q 669 935 632 972 q 730 844 706 899 q 754 711 754 789 q 735 594 754 647 q 683 501 717 542 q 605 433 650 460 q 507 396 560 407 q 408 382 457 386 q 301 378 358 378 l 199 378 l 199 15 q 183 0 199 0 l 36 0 q 21 15 21 0 l 21 1029 q 36 1044 21 1044 l 301 1044 q 408 1042 358 1044 q 507 1025 458 1039 m 490 567 q 517 584 501 572 q 545 613 532 596 q 567 656 558 631 q 576 711 576 681 q 567 767 576 743 q 545 809 558 792 q 517 838 532 826 q 490 854 501 849 q 413 875 456 872 q 324 878 369 878 l 199 878 l 199 544 l 324 544 q 413 547 369 544 q 490 567 456 550 z "},"d":{"ha":768,"x_min":0,"x_max":664,"o":"m 488 1028 q 501 1042 488 1042 l 650 1042 q 664 1028 664 1042 l 664 17 q 650 1 664 1 l 501 1 q 488 17 488 1 l 488 57 q 414 6 460 25 q 299 -14 368 -14 q 158 19 215 -14 q 65 105 100 51 q 15 227 31 158 q 0 367 0 296 q 15 506 0 438 q 66 628 31 574 q 158 715 101 682 q 299 747 215 747 q 414 728 368 747 q 488 676 460 708 l 488 1028 m 332 135 q 412 152 382 135 q 458 201 442 169 q 481 274 475 232 q 486 367 486 317 q 481 460 486 417 q 458 534 475 503 q 412 583 442 565 q 332 600 382 600 q 252 582 282 600 q 206 533 222 564 q 183 459 189 501 q 178 367 178 417 q 183 274 178 317 q 206 201 189 232 q 252 152 222 169 q 332 135 282 135 z "},"S":{"ha":804,"x_min":10,"x_max":707,"o":"m 543 799 q 524 803 532 792 q 452 867 493 844 q 363 890 411 890 q 301 882 331 890 q 247 856 271 874 q 210 812 224 838 q 196 750 196 786 q 215 694 196 719 q 260 651 233 669 q 318 621 288 633 q 374 600 349 608 q 533 536 469 571 q 636 462 597 501 q 691 378 675 422 q 707 289 707 335 q 683 165 707 222 q 611 67 658 108 q 496 3 564 26 q 340 -21 428 -21 q 156 24 236 -21 q 17 156 75 69 q 22 178 10 169 l 150 246 q 169 242 163 253 q 248 174 203 197 q 340 150 293 150 q 415 157 381 150 q 474 180 449 164 q 515 223 500 196 q 529 289 529 250 q 514 336 529 314 q 472 377 499 358 q 412 412 446 396 q 340 439 378 428 q 206 490 265 463 q 104 555 146 517 q 40 644 63 593 q 18 767 18 696 q 43 879 18 825 q 113 974 68 933 q 222 1040 158 1015 q 363 1065 286 1065 q 542 1017 458 1065 q 676 889 625 968 q 671 867 683 875 l 543 799 z "},"s":{"ha":603,"x_min":7,"x_max":540,"o":"m 381 551 q 363 557 371 546 q 330 588 350 576 q 274 600 310 600 q 199 578 224 600 q 174 522 174 556 q 185 487 174 501 q 213 462 196 472 q 249 444 229 451 q 285 433 268 438 q 404 395 356 415 q 483 349 453 375 q 526 286 513 322 q 540 200 540 250 q 528 133 540 171 q 482 60 515 94 q 390 1 449 25 q 240 -22 332 -22 q 106 13 169 -22 q 10 110 43 49 q 8 122 7 115 q 17 131 10 128 l 133 182 q 151 176 144 188 q 190 142 165 157 q 251 128 214 128 q 338 149 301 128 q 374 211 374 169 q 361 247 374 232 q 330 274 349 263 q 290 292 311 285 q 251 304 268 300 q 167 331 210 315 q 88 370 124 346 q 30 431 53 394 q 7 522 7 468 q 25 610 7 568 q 78 685 43 653 q 162 736 113 717 q 274 756 211 756 q 408 720 344 756 q 504 624 471 685 q 506 612 507 618 q 497 603 504 606 l 381 551 z "},"t":{"ha":532,"x_min":0,"x_max":442,"o":"m 428 732 q 442 718 442 732 l 442 599 q 428 585 442 585 l 288 585 l 288 250 q 320 164 288 186 q 428 140 353 142 q 442 125 442 140 l 442 11 q 428 -4 442 -4 q 280 8 340 -4 q 181 52 219 19 q 126 143 143 85 q 110 294 110 201 l 110 585 l 14 585 q 0 599 0 585 l 0 718 q 14 732 0 732 l 110 732 l 110 929 q 124 944 110 942 l 271 963 q 283 959 278 964 q 288 947 288 954 l 288 732 l 428 732 z "},"K":{"ha":926,"x_min":21,"x_max":851,"o":"m 846 24 q 847 8 851 17 q 835 0 843 0 l 667 0 q 656 6 661 0 l 294 482 l 199 376 l 199 15 q 183 0 199 0 l 36 0 q 21 15 21 0 l 21 1029 q 36 1044 21 1044 l 183 1044 q 199 1029 199 1044 l 199 618 l 583 1040 q 594 1044 588 1044 l 775 1044 q 790 1035 786 1044 q 786 1019 793 1026 l 406 604 l 846 24 z "},"X":{"ha":964,"x_min":-1,"x_max":882,"o":"m 197 7 q 185 0 193 0 l 17 0 q 3 8 7 0 q 4 24 -1 15 l 339 531 l 14 1021 q 13 1037 8 1029 q 26 1044 18 1044 l 196 1044 q 207 1038 203 1044 l 446 685 l 674 1038 q 686 1044 678 1044 l 854 1044 q 868 1037 864 1044 q 867 1021 872 1029 l 543 531 l 878 24 q 878 8 882 15 q 865 0 874 0 l 696 0 q 685 7 689 0 l 435 375 l 197 7 z "},"O":{"ha":924,"x_min":0,"x_max":822,"o":"m 22 767 q 65 864 35 813 q 142 959 94 915 q 257 1031 190 1003 q 411 1060 324 1060 q 566 1031 499 1060 q 681 959 633 1003 q 758 864 729 915 q 800 767 788 813 q 819 649 815 708 q 822 522 822 589 q 819 396 822 456 q 800 278 815 336 q 758 181 788 232 q 681 85 729 129 q 566 13 633 42 q 411 -15 499 -15 q 257 13 324 -15 q 142 85 190 42 q 65 181 94 129 q 22 278 35 232 q 3 396 7 336 q 0 522 0 456 q 3 649 0 589 q 22 767 7 708 m 644 522 q 640 653 644 589 q 611 767 636 717 q 586 805 603 783 q 544 847 569 826 q 486 880 519 867 q 411 893 453 893 q 336 880 369 893 q 278 847 303 867 q 236 805 253 826 q 211 767 219 783 q 183 653 188 717 q 178 522 178 589 q 182 392 178 456 q 211 278 186 328 q 236 240 219 261 q 278 198 253 218 q 336 165 303 178 q 411 151 369 151 q 486 165 453 151 q 544 198 519 178 q 586 240 569 218 q 611 278 603 261 q 640 392 636 328 q 644 522 644 456 z "},"l":{"ha":381,"x_min":21,"x_max":297,"o":"m 297 11 q 282 -4 297 -4 q 166 8 215 -3 q 85 46 117 18 q 37 124 53 74 q 21 256 21 175 l 21 1028 q 36 1042 21 1042 l 183 1042 q 197 1028 197 1042 l 197 211 q 222 158 197 174 q 283 140 247 143 q 297 125 297 140 l 297 11 z "},"m":{"ha":1229,"x_min":21,"x_max":1132,"o":"m 1089 617 q 1125 510 1118 571 q 1132 367 1132 450 l 1132 15 q 1117 0 1132 0 l 969 0 q 954 15 954 0 l 954 433 q 946 497 954 467 q 919 551 938 528 q 875 587 901 574 q 811 600 849 600 q 736 583 765 600 q 692 536 707 565 q 671 469 676 507 q 665 389 665 431 l 665 389 l 665 367 l 665 15 q 650 0 665 0 l 503 0 q 488 15 488 0 l 488 433 q 479 497 488 467 q 453 551 471 528 q 408 587 435 574 q 344 600 382 600 q 269 583 299 600 q 225 536 240 565 q 204 469 210 507 q 199 389 199 431 l 199 15 q 183 0 199 0 l 36 0 q 21 15 21 0 l 21 718 q 36 733 21 733 l 183 733 q 199 718 199 733 l 199 668 q 278 731 232 713 q 382 749 324 749 q 619 621 536 749 q 716 719 653 690 q 849 749 779 749 q 1089 617 1006 749 z "},"n":{"ha":763,"x_min":21,"x_max":665,"o":"m 622 617 q 658 510 651 571 q 665 367 665 450 l 665 15 q 650 0 665 0 l 503 0 q 488 15 488 0 l 488 433 q 479 497 488 467 q 453 551 471 528 q 408 587 435 574 q 343 600 381 600 q 269 583 297 600 q 225 536 240 565 q 204 469 210 507 q 199 389 199 431 l 199 15 q 183 0 199 0 l 36 0 q 21 15 21 0 l 21 718 q 36 733 21 733 l 183 733 q 199 718 199 733 l 199 668 q 277 731 231 713 q 382 749 324 749 q 622 617 539 749 z "},"o":{"ha":747,"x_min":0,"x_max":664,"o":"m 0 367 q 28 552 0 479 q 103 669 57 625 q 210 730 150 713 q 332 747 269 747 q 454 730 394 747 q 560 669 514 713 q 635 552 607 625 q 664 367 664 479 q 635 181 664 254 q 560 65 607 108 q 454 3 514 21 q 332 -14 394 -14 q 210 3 269 -14 q 103 65 150 21 q 28 181 57 108 q 0 367 0 254 m 332 133 q 412 151 382 133 q 458 201 442 169 q 481 274 475 232 q 486 367 486 317 q 481 459 486 417 q 458 533 475 501 q 412 581 442 564 q 332 599 382 599 q 252 581 282 599 q 206 533 222 564 q 183 459 189 501 q 178 367 178 417 q 183 274 178 317 q 206 201 189 232 q 252 151 222 169 q 332 133 282 133 z "},"p":{"ha":768,"x_min":21,"x_max":685,"o":"m 685 367 q 669 228 685 296 q 619 106 654 160 q 526 19 583 51 q 386 -14 469 -14 q 271 6 317 -14 q 197 57 225 25 l 197 -304 q 183 -319 197 -319 l 35 -319 q 21 -304 21 -319 l 21 718 q 35 732 21 732 l 183 732 q 197 718 197 732 l 197 676 q 271 728 225 708 q 386 747 317 747 q 527 715 469 747 q 619 628 585 682 q 669 506 654 575 q 685 367 685 438 m 353 133 q 433 151 403 133 q 480 201 464 169 q 501 274 496 232 q 507 367 507 317 q 501 460 507 417 q 480 534 496 503 q 433 583 464 565 q 353 600 403 600 q 273 582 303 600 q 226 533 243 564 q 204 459 210 501 q 199 367 199 417 q 204 274 199 317 q 226 201 210 232 q 273 151 243 169 q 353 133 303 133 z "},"q":{"ha":768,"x_min":0,"x_max":664,"o":"m 488 718 q 501 732 488 732 l 650 732 q 664 718 664 732 l 664 -304 q 650 -319 664 -319 l 501 -319 q 488 -304 488 -319 l 488 57 q 414 6 460 25 q 299 -14 368 -14 q 158 19 215 -14 q 66 106 101 51 q 15 228 31 160 q 0 367 0 296 q 15 506 0 438 q 65 628 31 575 q 158 715 100 682 q 299 747 215 747 q 414 728 368 747 q 488 676 460 708 l 488 718 m 332 133 q 412 151 382 133 q 458 201 442 169 q 481 274 475 232 q 486 367 486 317 q 481 459 486 417 q 458 533 475 501 q 412 582 442 564 q 332 600 382 600 q 252 583 282 600 q 206 534 222 565 q 183 460 189 503 q 178 367 178 417 q 183 274 178 317 q 206 201 189 232 q 252 151 222 169 q 332 133 282 133 z "},"r":{"ha":524,"x_min":21,"x_max":440,"o":"m 197 643 q 238 695 213 675 q 292 726 263 715 q 357 742 322 738 q 426 747 392 747 q 440 732 440 747 l 440 581 q 426 567 440 567 q 342 561 383 567 q 269 531 301 556 q 217 458 236 507 q 197 322 197 410 l 197 17 q 182 1 197 1 l 35 1 q 21 17 21 1 l 21 718 q 35 732 21 732 l 182 732 q 197 718 197 732 l 197 643 z "},"u":{"ha":769,"x_min":21,"x_max":665,"o":"m 64 117 q 28 223 35 163 q 21 367 21 283 l 21 718 q 36 733 21 733 l 183 733 q 199 718 199 733 l 199 300 q 207 237 199 267 q 233 184 215 207 q 278 147 251 161 q 342 133 304 133 q 417 151 388 133 q 461 197 446 168 q 482 265 476 226 q 488 344 488 303 l 488 718 q 503 733 488 733 l 650 733 q 665 718 665 733 l 665 15 q 650 0 665 0 l 503 0 q 488 15 488 0 l 488 65 q 408 3 454 21 q 304 -15 363 -15 q 64 117 147 -15 z "},"v":{"ha":781,"x_min":-1,"x_max":699,"o":"m 511 722 q 525 732 517 732 l 682 732 q 694 726 689 732 q 696 713 699 719 l 440 11 q 426 1 438 1 l 271 1 q 257 11 260 1 l 1 713 q 3 726 -1 719 q 15 732 8 732 l 172 732 q 186 722 182 732 l 354 267 l 511 722 z "},"w":{"ha":1214,"x_min":-1,"x_max":1132,"o":"m 944 722 q 958 732 947 732 l 1115 732 q 1127 726 1122 732 q 1129 713 1132 719 l 896 11 q 882 1 892 1 l 725 1 q 711 11 717 1 l 565 450 l 419 11 q 406 1 417 1 l 250 1 q 236 11 239 1 l 1 713 q 3 726 -1 719 q 15 732 8 732 l 172 732 q 188 722 183 732 l 333 272 l 468 722 q 482 732 471 732 l 649 732 q 663 722 660 732 l 810 272 l 944 722 z "},"x":{"ha":781,"x_min":-1,"x_max":699,"o":"m 693 25 q 694 9 699 17 q 681 1 689 1 l 494 1 q 482 8 486 1 l 346 218 l 208 8 q 196 1 204 1 l 17 1 q 3 9 7 1 q 4 25 -1 17 l 238 375 l 15 710 q 14 724 10 717 q 28 732 18 732 l 213 732 q 225 725 221 732 l 349 536 l 471 725 q 483 732 475 732 l 664 732 q 677 724 672 732 q 676 710 682 717 l 456 379 l 693 25 z "},"y":{"ha":799,"x_min":-1,"x_max":717,"o":"m 700 732 q 712 726 707 732 q 714 713 717 719 l 410 -110 q 297 -265 371 -214 q 89 -319 222 -317 q 74 -304 74 -319 l 74 -168 q 88 -153 74 -156 q 151 -144 125 -151 q 195 -123 176 -137 q 227 -86 214 -108 q 251 -32 240 -64 l 264 1 l 1 713 q 3 726 -1 719 q 15 732 7 732 l 175 732 q 189 722 186 732 l 360 256 l 531 722 q 544 732 536 732 l 700 732 z "},"A":{"ha":963,"x_min":-1,"x_max":881,"o":"m 175 10 q 161 0 171 0 l 15 0 q 3 6 8 0 q 1 19 -1 13 l 346 1035 q 360 1044 349 1044 l 518 1044 q 532 1035 529 1044 l 878 19 q 876 6 881 13 q 864 0 871 0 l 715 0 q 701 10 704 0 l 629 221 l 246 221 l 175 10 m 303 379 l 578 379 l 440 783 l 303 379 z "},"B":{"ha":838,"x_min":21,"x_max":754,"o":"m 365 456 l 199 456 l 199 167 l 365 167 q 406 167 383 167 q 454 172 429 168 q 488 182 467 175 q 528 204 508 189 q 562 246 547 219 q 576 311 576 272 q 562 377 576 351 q 528 418 547 403 q 488 441 508 433 q 454 450 467 449 q 406 455 429 454 q 365 456 383 456 m 606 558 q 674 510 646 538 q 720 449 703 482 q 746 381 738 417 q 754 311 754 346 q 740 210 754 253 q 704 138 725 168 q 660 88 683 107 q 621 56 638 68 q 583 33 604 43 q 531 15 561 22 q 461 4 501 8 q 367 0 421 0 l 36 0 q 21 15 21 0 l 21 1029 q 36 1044 21 1044 l 315 1044 q 459 1031 394 1044 q 575 982 524 1018 q 657 888 626 946 q 688 750 688 829 q 669 653 688 706 q 606 558 651 601 m 343 878 l 199 878 l 199 622 l 343 622 q 397 626 368 622 q 443 639 426 631 q 463 651 451 643 q 485 672 475 658 q 503 704 496 685 q 510 750 510 724 q 503 797 510 778 q 485 828 496 815 q 463 849 475 842 q 443 861 451 857 q 397 874 426 869 q 343 878 368 878 z "},"C":{"ha":900,"x_min":14,"x_max":814,"o":"m 644 278 q 646 281 646 281 q 667 288 653 294 l 797 222 q 804 214 803 219 q 803 203 806 208 q 749 124 782 163 q 672 54 717 85 q 567 5 626 24 q 435 -14 508 -14 q 274 15 343 -14 q 157 87 206 43 q 78 181 108 131 q 36 278 49 232 q 17 396 21 336 q 14 522 14 456 q 17 648 14 589 q 36 765 21 707 q 78 863 49 811 q 157 957 108 914 q 274 1028 206 1000 q 435 1057 343 1057 q 555 1041 497 1057 q 660 997 613 1025 q 747 930 708 969 q 807 843 785 890 q 800 822 814 829 l 667 756 q 654 755 660 753 q 646 763 649 757 q 644 765 646 764 q 619 803 636 782 q 577 844 603 825 q 516 877 551 864 q 435 890 481 890 q 353 877 389 890 q 292 844 318 864 q 249 803 265 825 q 225 765 233 782 q 195 652 200 715 q 190 522 190 589 q 195 392 190 456 q 225 278 200 328 q 250 240 233 261 q 292 199 267 218 q 353 166 318 179 q 435 153 389 153 q 516 166 481 153 q 577 199 551 179 q 619 240 603 218 q 644 278 636 261 z "},"D":{"ha":949,"x_min":21,"x_max":865,"o":"m 665 956 q 729 901 694 935 q 794 815 764 867 q 845 690 825 763 q 865 522 865 618 q 845 355 865 426 q 794 231 825 283 q 729 144 764 179 q 665 89 694 110 q 603 51 636 68 q 519 24 571 35 q 392 6 468 13 q 199 0 315 0 l 36 0 q 21 15 21 0 l 21 1029 q 36 1044 21 1044 l 199 1044 q 392 1038 315 1044 q 519 1021 468 1032 q 603 993 571 1010 q 665 956 636 976 m 492 192 q 549 215 515 199 q 613 268 582 232 q 666 365 644 304 q 688 522 688 426 q 666 679 688 618 q 613 776 644 740 q 549 829 582 813 q 492 853 515 846 q 379 871 453 865 q 199 878 306 876 l 199 167 q 379 174 306 168 q 492 192 453 179 z "},"E":{"ha":756,"x_min":21,"x_max":665,"o":"m 650 167 q 665 151 665 167 l 665 15 q 650 0 665 0 l 36 0 q 21 15 21 0 l 21 1029 q 36 1044 21 1044 l 639 1044 q 654 1029 654 1044 l 654 893 q 639 878 654 878 l 199 878 l 199 626 l 594 626 q 610 611 610 626 l 610 478 q 594 463 610 463 l 199 463 l 199 167 l 650 167 z "},"F":{"ha":738,"x_min":21,"x_max":654,"o":"m 654 893 q 639 878 654 878 l 199 878 l 199 626 l 594 626 q 610 611 610 626 l 610 478 q 594 463 610 463 l 199 463 l 199 15 q 183 0 199 0 l 36 0 q 21 15 21 0 l 21 1029 q 36 1044 21 1044 l 639 1044 q 654 1029 654 1044 l 654 893 z "},"G":{"ha":949,"x_min":14,"x_max":858,"o":"m 492 529 q 507 544 492 544 l 843 544 q 858 529 858 544 q 858 453 858 488 q 855 390 857 419 q 849 333 853 360 q 836 278 844 306 q 794 181 824 232 q 715 85 764 129 q 597 13 667 42 q 436 -15 528 -15 q 275 13 344 -15 q 157 85 206 42 q 78 181 108 129 q 36 278 49 232 q 17 396 21 336 q 14 522 14 456 q 17 649 14 589 q 36 767 21 708 q 78 864 49 813 q 157 959 108 915 q 275 1031 206 1003 q 436 1060 344 1060 q 556 1044 499 1060 q 661 1001 613 1029 q 747 933 710 972 q 808 847 785 894 q 810 836 811 842 q 801 828 808 831 l 667 760 q 647 767 654 754 q 617 810 636 788 q 573 851 599 832 q 513 881 547 869 q 436 893 478 893 q 355 880 390 893 q 293 847 319 867 q 250 805 267 826 q 225 767 233 783 q 197 653 201 717 q 192 522 192 589 q 196 392 192 456 q 225 278 200 328 q 250 240 233 261 q 293 198 267 218 q 355 165 319 178 q 436 151 390 151 q 517 165 482 151 q 579 198 553 178 q 622 240 606 218 q 647 278 639 261 q 667 330 660 301 q 676 389 674 358 l 507 389 q 492 404 492 389 l 492 529 z "},"H":{"ha":946,"x_min":21,"x_max":821,"o":"m 643 1029 q 658 1044 643 1044 l 806 1044 q 821 1029 821 1044 l 821 15 q 806 0 821 0 l 658 0 q 643 15 643 0 l 643 461 l 199 461 l 199 15 q 183 0 199 0 l 36 0 q 21 15 21 0 l 21 1029 q 36 1044 21 1044 l 183 1044 q 199 1029 199 1044 l 199 628 l 643 628 l 643 1029 z "},"I":{"ha":324,"x_min":21,"x_max":199,"o":"m 183 0 l 36 0 q 21 15 21 0 l 21 1029 q 36 1044 21 1044 l 183 1044 q 199 1029 199 1044 l 199 15 q 183 0 199 0 z "},"J":{"ha":750,"x_min":-11,"x_max":653,"o":"m 638 1044 q 653 1029 653 1044 l 653 444 q 646 296 653 369 q 597 156 639 222 q 461 24 539 64 q 297 -17 383 -17 q 121 33 200 -17 q -4 168 42 83 q 1 189 -11 182 l 131 254 q 151 247 144 258 q 210 180 174 204 q 297 156 247 156 q 372 173 339 156 q 431 222 404 190 q 469 321 464 264 q 475 444 475 378 l 475 1029 q 490 1044 475 1044 l 638 1044 z "},"L":{"ha":768,"x_min":21,"x_max":685,"o":"m 669 168 q 685 153 685 168 l 685 17 q 669 1 685 1 l 35 1 q 21 17 21 1 l 21 1028 q 35 1042 21 1042 l 183 1042 q 197 1028 197 1042 l 197 168 l 669 168 z "},"M":{"ha":1168,"x_min":21,"x_max":1043,"o":"m 854 1036 q 867 1044 858 1044 l 1028 1044 q 1043 1029 1043 1044 l 1043 15 q 1028 0 1043 0 l 881 0 q 865 15 865 0 l 865 689 l 610 197 q 597 189 606 189 l 469 189 q 456 197 460 189 l 199 690 l 199 15 q 183 0 199 0 l 36 0 q 21 15 21 0 l 21 1029 q 36 1044 21 1044 l 197 1044 q 210 1036 206 1044 l 532 418 l 854 1036 z "},"N":{"ha":990,"x_min":21,"x_max":865,"o":"m 199 15 q 183 0 199 0 l 36 0 q 21 15 21 0 l 21 1029 q 36 1044 21 1044 l 203 1044 q 215 1038 211 1044 l 688 297 l 688 1029 q 703 1044 688 1044 l 850 1044 q 865 1029 865 1044 l 865 15 q 850 0 865 0 l 683 0 q 671 7 675 0 l 199 747 l 199 15 z "},"Q":{"ha":946,"x_min":0,"x_max":850,"o":"m 839 49 q 839 28 850 39 l 739 -72 q 718 -72 729 -83 l 611 35 q 521 -2 571 11 q 411 -15 471 -15 q 257 13 324 -15 q 142 85 190 42 q 65 181 94 129 q 22 278 35 232 q 3 396 7 336 q 0 522 0 456 q 3 649 0 589 q 22 767 7 708 q 65 864 35 813 q 142 959 94 915 q 257 1031 190 1003 q 411 1060 324 1060 q 566 1031 499 1060 q 681 959 633 1003 q 758 864 729 915 q 800 767 788 813 q 819 649 815 708 q 822 522 822 589 q 819 396 822 456 q 800 278 815 336 q 776 215 792 247 q 738 150 761 182 l 839 49 m 178 522 q 182 392 178 456 q 211 278 186 328 q 236 240 219 261 q 278 198 253 218 q 336 165 303 178 q 411 151 369 151 q 449 155 431 151 q 482 164 467 158 l 417 229 q 417 250 407 240 l 517 350 q 538 350 528 361 l 611 276 l 611 278 q 640 392 636 328 q 644 522 644 456 q 640 653 644 589 q 611 767 636 717 q 586 805 603 783 q 544 847 569 826 q 486 880 519 867 q 411 893 453 893 q 336 880 369 893 q 278 847 303 867 q 236 805 253 826 q 211 767 219 783 q 183 653 188 717 q 178 522 178 589 z "},"R":{"ha":894,"x_min":21,"x_max":813,"o":"m 808 22 q 808 8 813 15 q 796 0 804 0 l 629 0 q 617 8 621 0 l 400 403 q 360 401 381 401 q 315 400 339 400 l 199 400 l 199 15 q 183 0 199 0 l 36 0 q 21 15 21 0 l 21 1029 q 36 1044 21 1044 l 315 1044 q 419 1042 371 1044 q 515 1026 467 1039 q 595 996 553 1017 q 673 939 638 975 q 731 850 708 903 q 754 722 754 797 q 706 547 754 619 q 581 439 658 474 l 808 22 m 340 567 q 424 569 383 567 q 496 588 464 572 q 521 603 507 593 q 547 631 535 614 q 568 670 560 647 q 576 722 576 693 q 568 774 576 751 q 547 814 560 797 q 521 841 535 831 q 496 857 507 851 q 424 875 464 872 q 340 878 383 878 l 199 878 l 199 567 l 340 567 z "},"T":{"ha":881,"x_min":0,"x_max":797,"o":"m 782 1047 q 797 1033 797 1047 l 797 896 q 782 882 797 882 l 488 882 l 488 17 q 472 1 488 1 l 325 1 q 310 17 310 1 l 310 882 l 15 882 q 0 896 0 882 l 0 1033 q 15 1047 0 1047 l 782 1047 z "},"U":{"ha":889,"x_min":14,"x_max":792,"o":"m 776 1044 q 792 1029 792 1044 l 792 422 q 765 246 792 326 q 689 108 739 165 q 567 17 639 50 q 403 -15 494 -15 q 239 17 311 -15 q 117 108 167 50 q 40 246 67 165 q 14 422 14 326 l 14 1029 q 29 1044 14 1044 l 176 1044 q 192 1029 192 1044 l 192 422 q 213 292 192 343 q 266 210 235 240 q 335 167 297 179 q 403 156 372 156 q 472 167 435 156 q 540 210 508 179 q 592 292 571 240 q 614 422 614 343 l 614 1029 q 629 1044 614 1044 l 776 1044 z "},"V":{"ha":990,"x_min":-1,"x_max":908,"o":"m 892 1044 q 904 1038 900 1044 q 906 1025 908 1032 l 558 10 q 544 0 554 0 l 365 0 q 351 10 357 0 l 1 1025 q 3 1038 -1 1032 q 15 1044 8 1044 l 169 1044 q 185 1035 181 1044 l 460 246 l 725 1035 q 739 1044 731 1044 l 892 1044 z "},"W":{"ha":1503,"x_min":0,"x_max":1419,"o":"m 1240 1033 q 1254 1044 1243 1044 l 1404 1044 q 1415 1040 1411 1044 q 1419 1031 1419 1035 q 1418 1025 1419 1028 l 1122 11 q 1108 0 1119 0 l 936 0 q 922 11 925 0 l 711 733 l 500 11 q 485 0 496 0 l 314 0 q 299 11 303 0 l 1 1025 q 0 1031 0 1028 q 4 1040 0 1035 q 15 1044 8 1044 l 168 1044 q 182 1033 178 1044 l 404 289 l 617 1033 q 631 1044 619 1044 l 790 1044 q 804 1033 801 1044 l 1028 289 l 1240 1033 z "},"Y":{"ha":953,"x_min":-1,"x_max":871,"o":"m 675 1036 q 688 1044 679 1044 l 854 1044 q 867 1037 863 1044 q 867 1022 871 1029 l 524 414 l 524 15 q 508 0 524 0 l 361 0 q 346 15 346 0 l 346 414 l 3 1022 q 3 1037 -1 1029 q 15 1044 7 1044 l 182 1044 q 194 1038 190 1044 l 440 611 l 675 1036 z "},"Z":{"ha":867,"x_min":14,"x_max":769,"o":"m 14 1029 q 29 1044 14 1044 l 754 1044 q 769 1029 769 1044 l 769 883 q 767 874 769 879 l 229 167 l 754 167 q 769 151 769 167 l 769 15 q 754 0 769 0 l 29 0 q 14 15 14 0 l 14 161 q 17 171 14 165 l 554 878 l 29 878 q 14 893 14 878 l 14 1029 z "},"!":{"ha":325,"x_min":21,"x_max":221,"o":"m 194 290 l 46 290 q 32 304 32 290 l 21 1031 q 36 1046 21 1046 l 206 1046 q 221 1031 221 1046 l 210 304 q 194 290 210 290 m 194 0 l 47 0 q 32 15 32 0 l 32 151 q 47 167 32 167 l 194 167 q 210 151 210 167 l 210 15 q 194 0 210 0 z "},"@":{"ha":1161,"x_min":0,"x_max":1078,"o":"m 544 1019 q 764 973 665 1019 q 932 851 863 926 q 1040 678 1001 775 q 1078 481 1078 582 q 1074 409 1078 447 q 1058 334 1069 371 q 1028 265 1047 297 q 981 210 1010 232 q 933 181 965 197 q 844 164 900 164 q 738 196 788 164 q 667 281 688 228 q 649 254 661 269 q 617 225 636 239 q 569 201 597 211 q 503 192 542 192 q 415 208 456 192 q 343 260 374 225 q 295 350 313 296 q 278 479 278 404 q 297 613 278 558 q 349 701 317 668 q 422 749 381 735 q 506 764 463 764 q 592 747 558 764 q 644 710 625 731 l 644 738 q 660 753 644 753 l 763 753 q 778 738 778 753 l 778 375 q 795 312 778 338 q 844 286 813 286 q 901 307 881 286 q 931 358 921 328 q 942 421 940 388 q 944 481 944 454 q 921 616 944 543 q 849 751 897 689 q 724 856 800 814 q 544 897 649 897 q 397 869 471 897 q 265 789 324 842 q 170 658 207 736 q 133 481 133 581 q 169 308 133 385 q 263 176 204 231 q 397 93 321 122 q 556 64 474 64 q 674 80 618 64 q 771 115 729 96 q 779 118 775 118 q 790 111 785 118 l 832 51 q 835 43 835 47 q 828 31 835 36 q 760 -7 797 10 q 686 -35 724 -24 q 613 -53 649 -47 q 544 -58 576 -58 q 324 -15 424 -58 q 151 103 224 29 q 40 274 79 176 q 0 481 0 372 q 40 682 0 585 q 151 854 79 779 q 324 974 224 929 q 544 1019 424 1019 m 539 303 q 628 344 601 303 q 656 469 656 386 l 656 486 q 628 615 656 574 q 539 657 601 657 q 478 644 501 657 q 443 606 456 631 q 426 550 431 582 q 422 481 422 518 q 426 414 422 446 q 443 357 431 382 q 478 317 456 332 q 539 303 501 303 z "},"#":{"ha":853,"x_min":7,"x_max":763,"o":"m 251 14 q 238 0 251 0 l 111 0 q 96 13 96 0 q 96 17 96 14 l 121 244 l 22 244 q 7 260 7 244 l 7 396 q 22 411 7 411 l 138 411 l 158 600 l 44 600 q 29 615 29 600 l 29 751 q 44 767 29 767 l 176 767 l 204 1031 q 219 1044 207 1044 l 346 1044 q 356 1040 353 1044 q 360 1031 360 1036 q 360 1028 360 1029 l 332 767 l 510 767 l 538 1031 q 553 1044 540 1044 l 679 1044 q 690 1040 686 1044 q 693 1031 693 1036 q 693 1028 693 1029 l 665 767 l 747 767 q 763 751 763 767 l 763 615 q 747 600 763 600 l 649 600 l 628 411 l 725 411 q 740 396 740 411 l 740 260 q 725 244 740 244 l 610 244 l 585 14 q 571 0 585 0 l 444 0 q 429 13 429 0 q 429 17 429 14 l 454 244 l 276 244 l 251 14 m 286 411 l 463 411 l 483 600 l 307 600 l 286 411 z "},"$":{"ha":815,"x_min":15,"x_max":718,"o":"m 718 300 q 695 177 718 231 q 633 85 672 124 q 538 22 593 46 q 418 -10 483 -1 l 418 -96 q 403 -111 418 -111 l 343 -111 q 329 -96 329 -111 l 329 -14 q 210 6 263 -12 q 121 51 158 25 q 58 108 83 78 q 18 163 33 138 q 15 172 15 168 q 25 183 15 179 l 154 243 q 161 244 158 244 q 172 238 168 244 q 233 181 196 206 q 329 156 269 156 l 329 450 q 215 494 269 467 q 119 558 160 521 q 53 645 78 596 q 29 756 29 694 q 49 863 29 811 q 108 957 69 915 q 202 1026 146 999 q 329 1058 258 1053 l 329 1129 q 343 1144 329 1144 l 403 1144 q 418 1129 418 1144 l 418 1056 q 515 1031 472 1049 q 590 988 557 1013 q 645 935 622 963 q 683 882 668 907 q 686 874 686 878 q 685 867 686 871 q 678 861 683 864 l 549 801 q 542 800 546 800 q 531 807 536 800 q 485 854 514 833 q 418 885 457 875 l 418 594 q 535 551 481 576 q 631 492 590 526 q 694 410 671 457 q 718 300 718 363 m 207 756 q 232 685 207 717 q 329 624 257 653 l 329 885 q 237 836 267 874 q 207 756 207 799 m 418 165 q 504 210 468 178 q 540 300 540 242 q 515 364 540 333 q 418 422 489 394 l 418 165 z "},"%":{"ha":1083,"x_min":0,"x_max":1000,"o":"m 768 1038 q 781 1044 772 1044 l 868 1044 q 880 1039 876 1044 q 883 1029 883 1033 q 881 1022 883 1026 l 232 7 q 219 0 228 0 l 132 0 q 121 6 124 0 q 118 15 118 11 q 119 22 118 19 l 768 1038 m 444 789 q 428 708 444 747 q 383 639 413 669 q 313 590 354 608 q 222 572 272 572 q 131 590 172 572 q 61 639 90 608 q 16 708 32 669 q 0 789 0 747 q 16 869 0 831 q 61 939 32 908 q 131 988 90 969 q 222 1006 172 1006 q 313 988 272 1006 q 383 939 354 969 q 428 869 413 908 q 444 789 444 831 m 311 789 q 288 853 311 822 q 222 883 264 883 q 157 853 181 883 q 133 789 133 822 q 157 725 133 756 q 222 694 181 694 q 288 725 264 694 q 311 789 311 756 m 1000 256 q 984 175 1000 214 q 939 106 968 136 q 869 57 910 75 q 778 39 828 39 q 687 57 728 39 q 617 106 646 75 q 572 175 588 136 q 556 256 556 214 q 572 336 556 297 q 617 406 588 375 q 687 454 646 436 q 778 472 728 472 q 869 454 828 472 q 939 406 910 436 q 984 336 968 375 q 1000 256 1000 297 m 867 256 q 843 319 867 289 q 778 350 819 350 q 713 319 736 350 q 689 256 689 289 q 713 192 689 222 q 778 161 736 161 q 843 192 819 161 q 867 256 867 222 z "},"&":{"ha":981,"x_min":14,"x_max":903,"o":"m 732 196 q 899 25 819 104 q 903 15 903 21 q 901 6 903 13 q 889 0 899 0 l 717 0 q 706 4 710 0 q 665 47 686 25 q 621 93 644 69 q 483 10 557 40 q 324 -19 408 -19 q 202 0 261 -19 q 94 63 143 19 q 33 153 53 101 q 14 257 14 204 q 15 288 14 260 q 37 369 15 317 q 97 461 58 422 q 185 539 142 507 q 105 648 139 589 q 71 778 71 707 q 92 891 71 839 q 151 981 114 943 q 240 1039 189 1018 q 349 1060 290 1060 q 456 1038 406 1060 q 544 978 506 1015 q 604 892 582 942 q 626 789 626 843 q 610 694 626 735 q 568 619 594 653 q 508 560 542 586 q 436 511 474 535 q 527 413 481 463 q 622 311 574 363 q 643 331 633 321 l 683 369 q 704 389 694 379 q 715 394 710 394 q 725 389 721 394 l 814 299 q 819 289 819 294 q 814 278 819 283 q 773 238 793 258 q 732 196 753 217 m 349 889 q 278 858 307 889 q 249 778 249 828 q 272 701 249 739 q 324 631 294 664 q 369 660 347 646 q 409 692 392 675 q 438 731 426 710 q 449 778 449 751 q 440 824 449 804 q 416 859 431 844 q 383 881 401 874 q 349 889 365 889 m 508 211 q 449 274 483 238 q 382 343 414 310 q 326 400 350 376 q 300 426 303 424 q 222 354 253 394 q 192 256 192 314 q 204 206 192 226 q 236 174 217 186 q 281 156 256 161 q 332 151 306 151 q 424 167 381 151 q 508 211 468 183 z "},"*":{"ha":753,"x_min":15,"x_max":654,"o":"m 653 760 q 654 753 654 756 q 643 742 654 743 l 454 694 l 579 546 q 583 536 583 540 q 576 525 583 529 l 458 439 q 450 436 454 436 q 444 437 449 436 q 438 443 440 438 l 335 607 l 232 443 q 225 437 229 438 q 219 436 221 436 q 211 439 215 436 l 93 525 q 86 536 86 529 q 90 546 86 540 l 215 694 l 26 742 q 15 753 15 743 q 17 760 15 756 l 61 899 q 75 910 65 910 q 82 908 78 910 l 261 835 l 247 1029 q 263 1044 247 1044 l 408 1044 q 419 1041 415 1044 q 422 1032 422 1038 q 422 1029 422 1031 l 408 835 l 589 908 q 596 910 593 910 q 608 899 606 910 l 653 760 z "},"(":{"ha":428,"x_min":22,"x_max":328,"o":"m 322 1092 q 222 800 256 940 q 188 522 188 660 q 222 245 188 385 q 322 -47 256 106 q 317 -65 328 -60 l 246 -111 q 225 -107 233 -118 q 73 195 124 33 q 22 522 22 357 q 73 849 22 688 q 225 1151 124 1011 q 246 1156 233 1163 l 317 1110 q 322 1092 328 1104 z "},")":{"ha":428,"x_min":17,"x_max":322,"o":"m 22 -47 q 123 245 89 106 q 157 522 157 385 q 123 800 157 660 q 22 1092 89 940 q 28 1110 17 1104 l 99 1156 q 119 1151 111 1163 q 272 849 221 1011 q 322 522 322 688 q 272 195 322 357 q 119 -107 221 33 q 99 -111 111 -118 l 28 -65 q 22 -47 17 -60 z "},"–":{"ha":525,"x_min":21,"x_max":421,"o":"m 36 489 l 406 489 q 421 474 421 489 l 421 349 q 406 333 421 333 l 36 333 q 21 349 21 333 l 21 474 q 36 489 21 489 z "},"_":{"ha":667,"x_min":0,"x_max":667,"o":"m 15 -22 l 651 -22 q 667 -37 667 -22 l 667 -118 q 651 -133 667 -133 l 15 -133 q 0 -118 0 -133 l 0 -37 q 15 -22 0 -22 z "},"=":{"ha":703,"x_min":21,"x_max":599,"o":"m 36 644 l 583 644 q 599 629 599 644 l 599 504 q 583 489 599 489 l 36 489 q 21 504 21 489 l 21 629 q 36 644 21 644 m 36 356 l 583 356 q 599 340 599 356 l 599 215 q 583 200 599 200 l 36 200 q 21 215 21 200 l 21 340 q 36 356 21 356 z "},"+":{"ha":747,"x_min":21,"x_max":643,"o":"m 628 486 q 643 471 643 486 l 643 346 q 628 331 643 331 l 421 331 l 421 113 q 406 97 421 97 l 258 97 q 243 113 243 97 l 243 331 l 36 331 q 21 346 21 331 l 21 471 q 36 486 21 486 l 243 486 l 243 704 q 258 719 243 719 l 406 719 q 421 704 421 719 l 421 486 l 628 486 z "},",":{"ha":303,"x_min":21,"x_max":199,"o":"m 21 151 q 36 167 21 167 l 183 167 q 199 151 199 167 l 199 0 q 156 -126 199 -87 q 36 -167 113 -164 q 21 -151 21 -167 l 21 -147 q 33 -133 21 -133 q 93 -95 76 -128 q 110 0 110 -62 l 36 0 q 21 15 21 0 l 21 151 z "},"·":{"ha":372,"x_min":0,"x_max":0,"o":""},"/":{"ha":568,"x_min":0,"x_max":485,"o":"m 469 1044 q 481 1040 476 1044 q 485 1031 485 1035 q 483 1025 485 1028 l 161 10 q 147 0 158 0 l 15 0 q 3 5 7 0 q 0 14 0 10 q 1 19 0 17 l 324 1035 q 338 1044 326 1044 l 469 1044 z "},"?":{"ha":738,"x_min":0,"x_max":654,"o":"m 13 804 q 3 809 6 806 q 0 817 0 813 q 1 822 0 819 q 46 915 17 871 q 117 990 75 958 q 210 1041 158 1022 q 321 1060 261 1060 q 467 1029 404 1060 q 571 949 529 999 q 633 840 613 900 q 654 722 654 781 q 646 651 654 683 q 622 591 638 619 q 581 536 606 563 q 525 482 557 510 q 481 444 504 464 q 440 402 458 424 q 408 356 421 381 q 392 303 394 332 q 376 289 389 289 l 243 289 q 233 292 236 289 q 229 301 229 296 q 229 304 229 303 q 274 447 233 378 q 371 565 314 517 q 428 617 407 596 q 459 655 449 638 q 473 690 469 672 q 476 733 476 708 q 468 780 476 753 q 441 831 460 807 q 392 872 422 856 q 321 889 363 889 q 279 884 301 889 q 236 867 257 879 q 197 833 215 854 q 167 781 179 813 q 154 771 164 771 q 150 771 153 771 l 13 804 m 400 0 l 253 0 q 238 15 238 0 l 238 151 q 253 167 238 167 l 400 167 q 415 151 415 167 l 415 15 q 400 0 415 0 z "},";":{"ha":303,"x_min":21,"x_max":199,"o":"m 183 567 l 36 567 q 21 582 21 567 l 21 718 q 36 733 21 733 l 183 733 q 199 718 199 733 l 199 582 q 183 567 199 567 m 21 151 q 36 167 21 167 l 183 167 q 199 151 199 167 l 199 0 q 156 -126 199 -87 q 36 -167 113 -164 q 21 -151 21 -167 l 21 -147 q 33 -133 21 -133 q 93 -95 76 -128 q 110 0 110 -62 l 36 0 q 21 15 21 0 l 21 151 z "},":":{"ha":303,"x_min":21,"x_max":199,"o":"m 183 567 l 36 567 q 21 582 21 567 l 21 718 q 36 733 21 733 l 183 733 q 199 718 199 733 l 199 582 q 183 567 199 567 m 183 0 l 36 0 q 21 15 21 0 l 21 151 q 36 167 21 167 l 183 167 q 199 151 199 167 l 199 15 q 183 0 199 0 z "},"‘":{"ha":303,"x_min":21,"x_max":199,"o":"m 199 749 q 183 733 199 733 l 36 733 q 21 749 21 733 l 21 900 q 63 1026 21 988 q 183 1067 106 1064 q 199 1051 199 1067 l 199 1047 q 185 1033 199 1033 q 126 995 143 1028 q 110 900 110 963 l 183 900 q 199 885 199 900 l 199 749 z "},"“":{"ha":569,"x_min":21,"x_max":465,"o":"m 199 749 q 183 733 199 733 l 36 733 q 21 749 21 733 l 21 900 q 64 1026 21 988 q 183 1067 107 1064 q 199 1051 199 1067 l 199 1047 q 186 1033 199 1033 q 126 995 143 1028 q 110 900 110 963 l 183 900 q 199 885 199 900 l 199 749 m 465 749 q 450 733 465 733 l 303 733 q 288 749 288 733 l 288 900 q 331 1026 288 988 q 450 1067 374 1064 q 465 1051 465 1067 l 465 1047 q 453 1033 465 1033 q 393 995 410 1028 q 376 900 376 963 l 450 900 q 465 885 465 900 l 465 749 z "},"[":{"ha":458,"x_min":21,"x_max":354,"o":"m 354 -96 q 339 -111 354 -111 l 36 -111 q 21 -96 21 -111 l 21 1140 q 36 1156 21 1156 l 339 1156 q 354 1140 354 1156 l 354 1049 q 339 1033 354 1033 l 176 1033 l 176 11 l 339 11 q 354 -4 354 11 l 354 -96 z "},"]":{"ha":458,"x_min":21,"x_max":354,"o":"m 21 1140 q 36 1156 21 1156 l 339 1156 q 354 1140 354 1156 l 354 -96 q 339 -111 354 -111 l 36 -111 q 21 -96 21 -111 l 21 -4 q 36 11 21 11 l 199 11 l 199 1033 l 36 1033 q 21 1049 21 1033 l 21 1140 z "},"\\":{"ha":550,"x_min":-21,"x_max":467,"o":"m -19 1025 q -21 1031 -21 1028 q -17 1040 -21 1035 q -6 1044 -12 1044 l 128 1044 q 142 1035 138 1044 l 465 19 q 467 14 467 17 q 463 5 467 10 q 451 0 458 0 l 319 0 q 304 10 310 0 l -19 1025 z "},"¥":{"ha":817,"x_min":1,"x_max":733,"o":"m 543 1036 q 556 1044 547 1044 l 718 1044 q 730 1040 726 1044 q 733 1031 733 1035 q 731 1022 733 1026 l 488 544 l 618 544 q 633 529 633 544 l 633 471 q 618 456 633 456 l 456 456 l 456 344 l 618 344 q 633 329 633 344 l 633 271 q 618 256 633 256 l 456 256 l 456 15 q 440 0 456 0 l 293 0 q 278 15 278 0 l 278 256 l 115 256 q 100 271 100 256 l 100 329 q 115 344 100 344 l 278 344 l 278 456 l 115 456 q 100 471 100 456 l 100 529 q 115 544 100 544 l 246 544 l 3 1022 q 1 1031 1 1026 q 4 1040 1 1035 q 15 1044 7 1044 l 178 1044 q 190 1036 189 1044 l 367 692 l 543 1036 z "},">":{"ha":792,"x_min":21,"x_max":688,"o":"m 21 849 q 26 860 21 857 q 36 864 32 864 q 42 863 39 864 l 679 565 q 688 551 688 561 l 688 403 q 679 390 688 393 l 42 82 q 36 81 39 81 q 26 84 32 81 q 21 96 21 88 l 21 251 q 29 265 21 261 l 467 476 l 29 679 q 21 693 21 683 l 21 849 z "},"<":{"ha":792,"x_min":21,"x_max":688,"o":"m 679 265 q 688 251 688 261 l 688 96 q 682 84 688 88 q 672 81 676 81 q 667 82 669 81 l 29 390 q 21 403 21 393 l 21 551 q 29 565 21 561 l 667 863 q 672 864 669 864 q 682 860 676 864 q 688 849 688 857 l 688 693 q 679 679 688 685 l 242 476 l 679 265 z "},"{":{"ha":525,"x_min":21,"x_max":421,"o":"m 310 689 q 294 589 310 629 q 254 522 279 549 q 294 456 279 496 q 310 356 310 415 l 310 200 q 313 128 310 160 q 326 72 315 96 q 356 33 336 49 q 408 13 375 18 q 421 -1 421 10 l 421 -96 q 406 -111 421 -111 q 282 -89 331 -110 q 205 -33 233 -68 q 165 51 176 3 q 154 156 154 99 l 154 367 q 126 431 154 407 q 57 464 97 456 q 46 464 51 464 q 35 465 40 464 q 21 481 21 465 l 21 564 q 35 579 21 579 q 46 581 40 581 q 57 581 51 581 q 126 613 97 589 q 154 678 154 638 l 154 889 q 165 994 154 946 q 205 1077 176 1042 q 282 1133 233 1113 q 406 1156 331 1154 q 421 1140 421 1156 l 421 1046 q 408 1032 421 1035 q 356 1011 375 1026 q 326 972 336 996 q 313 917 315 949 q 310 844 310 885 l 310 689 z "},"}":{"ha":525,"x_min":21,"x_max":421,"o":"m 132 356 q 147 456 132 415 q 188 522 163 496 q 147 589 163 549 q 132 689 132 629 l 132 844 q 129 917 132 885 q 116 972 126 949 q 86 1011 106 996 q 33 1032 67 1026 q 21 1046 21 1035 l 21 1140 q 36 1156 21 1156 q 160 1133 111 1154 q 237 1077 208 1113 q 276 994 265 1042 q 288 889 288 946 l 288 678 q 316 613 288 638 q 385 581 344 589 q 396 581 390 581 q 407 579 401 581 q 421 564 421 579 l 421 481 q 407 465 421 465 q 396 464 401 464 q 385 464 390 464 q 316 431 344 456 q 288 367 288 407 l 288 156 q 276 51 288 99 q 237 -33 265 3 q 160 -89 208 -68 q 36 -111 111 -110 q 21 -96 21 -111 l 21 -1 q 33 13 21 10 q 86 33 67 18 q 116 72 106 49 q 129 128 126 96 q 132 200 132 160 l 132 356 z "},"|":{"ha":258,"x_min":21,"x_max":154,"o":"m 139 -89 l 36 -89 q 21 -74 21 -89 l 21 1118 q 36 1133 21 1133 l 139 1133 q 154 1118 154 1133 l 154 -74 q 139 -89 154 -89 z "},"’":{"ha":303,"x_min":21,"x_max":199,"o":"m 21 1029 q 36 1044 21 1044 l 183 1044 q 199 1029 199 1044 l 199 878 q 156 752 199 790 q 36 711 113 714 q 21 726 21 711 l 21 731 q 33 744 21 744 q 93 782 76 749 q 110 878 110 815 l 36 878 q 21 892 21 878 l 21 1029 z "},"”":{"ha":569,"x_min":21,"x_max":465,"o":"m 288 1029 q 303 1044 288 1044 l 450 1044 q 465 1029 465 1044 l 465 878 q 422 752 465 790 q 303 711 379 714 q 288 726 288 711 l 288 731 q 300 744 288 744 q 360 782 343 749 q 376 878 376 815 l 303 878 q 288 892 288 878 l 288 1029 m 21 1029 q 36 1044 21 1044 l 183 1044 q 199 1029 199 1044 l 199 878 q 156 752 199 790 q 36 711 113 714 q 21 726 21 711 l 21 731 q 33 744 21 744 q 93 782 76 749 q 110 878 110 815 l 36 878 q 21 892 21 878 l 21 1029 z "},".":{"ha":303,"x_min":21,"x_max":199,"o":"m 183 0 l 36 0 q 21 15 21 0 l 21 151 q 36 167 21 167 l 183 167 q 199 151 199 167 l 199 15 q 183 0 199 0 z "},"'":{"ha":303,"x_min":21,"x_max":199,"o":"m 21 1029 q 36 1044 21 1044 l 183 1044 q 199 1029 199 1044 l 199 878 q 156 752 199 790 q 36 711 113 714 q 21 726 21 711 l 21 731 q 33 744 21 744 q 93 782 76 749 q 110 878 110 815 l 36 878 q 21 892 21 878 l 21 1029 z "},"\"":{"ha":569,"x_min":21,"x_max":465,"o":"m 288 1029 q 303 1044 288 1044 l 450 1044 q 465 1029 465 1044 l 465 878 q 422 752 465 790 q 303 711 379 714 q 288 726 288 711 l 288 731 q 300 744 288 744 q 360 782 343 749 q 376 878 376 815 l 303 878 q 288 892 288 878 l 288 1029 m 21 1029 q 36 1044 21 1044 l 183 1044 q 199 1029 199 1044 l 199 878 q 156 752 199 790 q 36 711 113 714 q 21 726 21 711 l 21 731 q 33 744 21 744 q 93 782 76 749 q 110 878 110 815 l 36 878 q 21 892 21 878 l 21 1029 z "},"-":{"ha":525,"x_min":21,"x_max":421,"o":"m 36 489 l 406 489 q 421 474 421 489 l 421 349 q 406 333 421 333 l 36 333 q 21 349 21 333 l 21 474 q 36 489 21 489 z "},"ﬀ":{"ha":935,"x_min":0,"x_max":844,"o":"m 831 900 q 725 875 761 897 q 689 789 689 853 l 689 733 l 829 733 q 844 718 844 733 l 844 600 q 829 585 844 585 l 689 585 l 689 15 q 674 0 689 0 l 526 0 q 511 15 511 0 l 511 585 l 289 585 l 289 15 q 274 0 289 0 l 126 0 q 111 15 111 0 l 111 585 l 15 585 q 0 600 0 585 l 0 718 q 15 733 0 733 l 111 733 l 111 744 q 128 897 111 839 q 183 988 144 956 q 281 1033 221 1021 q 429 1044 342 1044 q 444 1029 444 1044 l 444 915 q 431 900 444 900 q 325 875 361 897 q 289 789 289 853 l 289 733 l 511 733 l 511 744 q 528 897 511 839 q 583 988 544 956 q 681 1033 621 1021 q 829 1044 742 1044 q 844 1029 844 1044 l 844 915 q 831 900 844 900 z "},"ﬁ":{"ha":793,"x_min":0,"x_max":689,"o":"m 674 733 q 689 718 689 733 l 689 15 q 674 0 689 0 l 526 0 q 511 15 511 0 l 511 585 l 289 585 l 289 15 q 274 0 289 0 l 126 0 q 111 15 111 0 l 111 585 l 15 585 q 0 600 0 585 l 0 718 q 15 733 0 733 l 111 733 l 111 744 q 128 897 111 839 q 183 988 144 956 q 281 1033 221 1021 q 429 1044 342 1044 q 444 1029 444 1044 l 444 915 q 431 900 444 900 q 325 875 361 897 q 289 789 289 853 l 289 733 l 674 733 m 526 867 q 511 882 511 867 l 511 1029 q 526 1044 511 1044 l 674 1044 q 689 1029 689 1044 l 689 882 q 674 867 689 867 l 526 867 z "},"ﬂ":{"ha":872,"x_min":0,"x_max":789,"o":"m 775 139 q 789 125 789 139 l 789 10 q 774 -6 789 -6 q 658 6 707 -4 q 576 45 608 17 q 527 124 543 74 q 511 256 511 175 l 511 900 l 431 900 q 325 875 361 897 q 289 789 289 853 l 289 733 l 429 733 q 444 718 444 733 l 444 600 q 429 585 444 585 l 289 585 l 289 15 q 274 0 289 0 l 126 0 q 111 15 111 0 l 111 585 l 15 585 q 0 600 0 585 l 0 718 q 15 733 0 733 l 111 733 l 111 744 q 128 897 111 839 q 183 988 144 956 q 281 1033 221 1021 q 429 1044 342 1044 l 674 1044 q 689 1029 689 1044 l 689 211 q 714 157 689 172 q 775 139 739 142 z "},"ﬃ":{"ha":1193,"x_min":0,"x_max":1089,"o":"m 1074 867 l 926 867 q 911 882 911 867 l 911 1029 q 926 1044 911 1044 l 1074 1044 q 1089 1029 1089 1044 l 1089 882 q 1074 867 1089 867 m 1074 733 q 1089 718 1089 733 l 1089 15 q 1074 0 1089 0 l 926 0 q 911 15 911 0 l 911 585 l 689 585 l 689 15 q 674 0 689 0 l 526 0 q 511 15 511 0 l 511 585 l 289 585 l 289 15 q 274 0 289 0 l 126 0 q 111 15 111 0 l 111 585 l 15 585 q 0 600 0 585 l 0 718 q 15 733 0 733 l 111 733 l 111 744 q 128 897 111 839 q 183 988 144 956 q 281 1033 221 1021 q 429 1044 342 1044 q 444 1029 444 1044 l 444 915 q 431 900 444 900 q 325 875 361 897 q 289 789 289 853 l 289 733 l 511 733 l 511 744 q 528 897 511 839 q 583 988 544 956 q 681 1033 621 1021 q 829 1044 742 1044 q 844 1029 844 1044 l 844 915 q 831 900 844 900 q 725 875 761 897 q 689 789 689 853 l 689 733 l 1074 733 z "},"ﬄ":{"ha":1272,"x_min":0,"x_max":1189,"o":"m 1175 139 q 1189 125 1189 139 l 1189 10 q 1174 -6 1189 -6 q 1058 6 1107 -4 q 976 45 1008 17 q 927 124 943 74 q 911 256 911 175 l 911 900 l 831 900 q 725 875 761 897 q 689 789 689 853 l 689 733 l 829 733 q 844 718 844 733 l 844 600 q 829 585 844 585 l 689 585 l 689 15 q 674 0 689 0 l 526 0 q 511 15 511 0 l 511 585 l 289 585 l 289 15 q 274 0 289 0 l 126 0 q 111 15 111 0 l 111 585 l 15 585 q 0 600 0 585 l 0 718 q 15 733 0 733 l 111 733 l 111 744 q 128 897 111 839 q 183 988 144 956 q 281 1033 221 1021 q 429 1044 342 1044 q 444 1029 444 1044 l 444 915 q 431 900 444 900 q 325 875 361 897 q 289 789 289 853 l 289 733 l 511 733 l 511 744 q 528 897 511 839 q 583 988 544 956 q 681 1033 621 1021 q 829 1044 742 1044 l 1074 1044 q 1089 1029 1089 1044 l 1089 211 q 1114 157 1089 172 q 1175 139 1139 142 z "}}}
